<svg width="203" height="31" viewBox="0 0 203 31" fill="none" xmlns="http://www.w3.org/2000/svg">
<path d="M9.05572 30.396C6.03172 30.396 3.88372 29.556 2.61172 27.876C1.36372 26.172 0.739719 23.772 0.739719 20.676V10.272C0.739719 7.08 1.36372 4.656 2.61172 3C3.85972 1.344 6.00772 0.515998 9.05572 0.515998C11.9117 0.515998 13.9397 1.236 15.1397 2.676C16.3397 4.116 16.9397 6.192 16.9397 8.904V11.352H11.8277V8.832C11.8277 7.8 11.7797 6.996 11.6837 6.42C11.5877 5.82 11.3357 5.34 10.9277 4.98C10.5437 4.596 9.93172 4.404 9.09172 4.404C8.22772 4.404 7.57972 4.608 7.14772 5.016C6.71572 5.4 6.42772 5.928 6.28372 6.6C6.16372 7.248 6.10372 8.1 6.10372 9.156V21.792C6.10372 23.448 6.31972 24.648 6.75172 25.392C7.18372 26.112 7.96372 26.472 9.09172 26.472C9.90772 26.472 10.5077 26.28 10.8917 25.896C11.2997 25.512 11.5517 25.008 11.6477 24.384C11.7677 23.736 11.8277 22.884 11.8277 21.828V19.2H16.9397V21.54C16.9397 24.348 16.3517 26.532 15.1757 28.092C13.9997 29.628 11.9597 30.396 9.05572 30.396ZM28.6051 30.396C25.5811 30.396 23.4211 29.592 22.1251 27.984C20.8291 26.352 20.1811 23.976 20.1811 20.856V9.912C20.1811 6.816 20.8291 4.476 22.1251 2.892C23.4211 1.308 25.5811 0.515998 28.6051 0.515998C31.6051 0.515998 33.7531 1.308 35.0491 2.892C36.3451 4.476 36.9931 6.816 36.9931 9.912V20.856C36.9931 23.952 36.3331 26.316 35.0131 27.948C33.7171 29.58 31.5811 30.396 28.6051 30.396ZM28.6051 26.472C29.7811 26.472 30.5731 26.1 30.9811 25.356C31.3891 24.612 31.5931 23.532 31.5931 22.116V8.688C31.5931 7.272 31.3891 6.204 30.9811 5.484C30.5971 4.764 29.8051 4.404 28.6051 4.404C27.4051 4.404 26.6011 4.776 26.1931 5.52C25.7851 6.24 25.5811 7.296 25.5811 8.688V22.116C25.5811 23.532 25.7851 24.612 26.1931 25.356C26.6011 26.1 27.4051 26.472 28.6051 26.472ZM40.9343 0.839998H52.9223V4.512H46.2263V13.008H51.6983V16.716H46.2263V30H40.9343V0.839998ZM55.8054 0.839998H67.7934V4.512H61.0974V13.008H66.5694V16.716H61.0974V30H55.8054V0.839998ZM70.6765 0.839998H82.9165V4.584H75.9685V12.972H81.4405V16.68H75.9685V26.364H82.9885V30H70.6765V0.839998ZM86.0749 0.839998H98.3149V4.584H91.3669V12.972H96.8389V16.68H91.3669V26.364H98.3869V30H86.0749V0.839998ZM110.299 0.839998H115.591V13.008H121.531V0.839998H126.859V30H121.531V16.824H115.591V30H110.299V0.839998ZM139.277 30.396C136.253 30.396 134.093 29.592 132.797 27.984C131.501 26.352 130.853 23.976 130.853 20.856V9.912C130.853 6.816 131.501 4.476 132.797 2.892C134.093 1.308 136.253 0.515998 139.277 0.515998C142.277 0.515998 144.425 1.308 145.721 2.892C147.017 4.476 147.665 6.816 147.665 9.912V20.856C147.665 23.952 147.005 26.316 145.685 27.948C144.389 29.58 142.253 30.396 139.277 30.396ZM139.277 26.472C140.453 26.472 141.245 26.1 141.653 25.356C142.061 24.612 142.265 23.532 142.265 22.116V8.688C142.265 7.272 142.061 6.204 141.653 5.484C141.269 4.764 140.477 4.404 139.277 4.404C138.077 4.404 137.273 4.776 136.865 5.52C136.457 6.24 136.253 7.296 136.253 8.688V22.116C136.253 23.532 136.457 24.612 136.865 25.356C137.273 26.1 138.077 26.472 139.277 26.472ZM159.598 30.396C157.486 30.396 155.83 30.012 154.63 29.244C153.43 28.476 152.59 27.384 152.11 25.968C151.63 24.552 151.39 22.752 151.39 20.568V0.839998H156.574V21.18C156.574 22.86 156.766 24.156 157.15 25.068C157.558 25.98 158.374 26.436 159.598 26.436C160.846 26.436 161.662 25.98 162.046 25.068C162.454 24.156 162.658 22.86 162.658 21.18V0.839998H167.806V20.568C167.806 22.728 167.566 24.528 167.086 25.968C166.606 27.384 165.766 28.476 164.566 29.244C163.366 30.012 161.71 30.396 159.598 30.396ZM179.341 30.396C176.701 30.396 174.721 29.652 173.401 28.164C172.105 26.676 171.397 24.456 171.277 21.504L175.849 20.604C175.921 22.452 176.209 23.868 176.713 24.852C177.241 25.812 178.057 26.292 179.161 26.292C179.977 26.292 180.577 26.052 180.961 25.572C181.369 25.068 181.573 24.396 181.573 23.556C181.573 22.404 181.309 21.432 180.781 20.64C180.277 19.824 179.473 18.936 178.369 17.976L174.697 14.772C173.569 13.812 172.717 12.78 172.141 11.676C171.589 10.572 171.313 9.252 171.313 7.716C171.313 5.436 171.973 3.672 173.293 2.424C174.637 1.152 176.485 0.515998 178.837 0.515998C181.357 0.515998 183.157 1.236 184.237 2.676C185.341 4.092 185.977 6.012 186.145 8.436L181.573 9.228C181.501 7.644 181.273 6.456 180.889 5.664C180.529 4.848 179.809 4.44 178.729 4.44C177.961 4.44 177.361 4.704 176.929 5.232C176.497 5.736 176.281 6.384 176.281 7.176C176.281 8.112 176.461 8.904 176.821 9.552C177.205 10.176 177.817 10.848 178.657 11.568L182.293 14.772C183.661 15.948 184.729 17.208 185.497 18.552C186.265 19.896 186.649 21.456 186.649 23.232C186.649 24.624 186.337 25.86 185.713 26.94C185.113 28.02 184.261 28.872 183.157 29.496C182.053 30.096 180.781 30.396 179.341 30.396ZM189.786 0.839998H202.026V4.584H195.078V12.972H200.55V16.68H195.078V26.364H202.098V30H189.786V0.839998Z" fill="black"/>
</svg>
